<svg width="36" height="29" viewBox="0 0 36 29" fill="none" xmlns="http://www.w3.org/2000/svg">
<path d="M34.2352 0.824083C28.0792 -0.18109 21.1691 0.360583 15.4999 3.13408C14.8352 3.45933 12.4828 4.29877 13.0008 5.40965C13.2249 5.89035 13.9242 6.17782 14.3486 6.41745C15.0552 6.81636 15.7826 7.17797 16.5219 7.51231C19.2513 8.74611 22.1322 9.587 24.9627 10.5472C26.2515 10.9846 27.5342 11.4443 28.7875 11.9767C29.9753 12.481 32.1336 13.3047 30.7446 14.8259C30.7079 14.8661 29.3361 15.9509 29.3287 15.9308C29.2865 15.818 30.3873 15.5085 29.3063 15.8646C29.0741 15.9411 28.8381 16.0095 28.6027 16.0755C27.1243 16.4912 25.5997 16.7277 24.076 16.8994C21.3121 17.2108 18.526 17.2673 15.7683 17.642C13.0077 18.017 10.3802 18.7615 7.84327 19.919C6.19418 20.6714 4.53435 21.5228 3.07718 22.6136C2.13307 23.3203 0.905965 24.3386 0.883077 25.6401C0.854706 27.2549 3.11151 27.7691 4.32312 28.1321C6.03611 28.6453 7.81061 28.8515 9.59488 28.8077C10.4741 28.7862 11.5449 28.0666 12.3037 27.6681C12.6461 27.4883 13.3272 27.2587 13.5363 26.9428C13.5718 26.889 13.9509 26.6647 13.6717 26.6716C11.1872 26.7326 8.44931 26.3418 6.24305 25.1142C5.38382 24.6361 4.96016 23.8828 5.29822 22.9125C5.47703 22.3995 5.84753 21.9406 6.22946 21.5642C6.43021 21.3662 6.6586 21.1894 6.88271 21.0203C7.06796 20.8807 7.95485 20.4727 7.19217 20.7479C6.45929 21.0124 7.15307 20.7888 7.30828 20.7419C7.54669 20.6697 7.782 20.5875 8.0216 20.5181C8.54826 20.3658 9.07944 20.2354 9.61634 20.1254C10.6799 19.9073 11.757 19.7571 12.8359 19.6397C14.9694 19.407 17.1153 19.3249 19.251 19.115C23.6867 18.679 27.7776 17.4476 31.6716 15.2445C32.6863 14.6705 35.8655 13.0933 35.4959 11.5883C35.2742 10.6855 34.0009 10.2808 33.2599 9.96129C32.1975 9.50331 31.1135 9.09818 30.0215 8.71696C27.5788 7.86461 25.0936 7.13468 22.6801 6.19815C21.8707 5.88413 16.1011 3.69493 17.4696 2.51756C16.9952 2.81172 16.5205 3.10587 16.0461 3.40003C15.6725 3.59901 13.419 4.44872 15.0843 3.92975C15.3621 3.84318 15.641 3.76091 15.9211 3.68199C16.6121 3.48731 17.3087 3.31488 18.0118 3.17019C19.365 2.89157 20.7373 2.70265 22.1144 2.59694C24.8036 2.39031 27.4967 2.52688 30.1574 2.96119C30.9039 3.08316 32.2266 2.15762 32.8663 1.82161C33.1013 1.6982 34.4677 0.863072 34.2343 0.825047L34.2352 0.824083Z" fill="#F9E696"/>
</svg>
