<svg width="14" height="19" viewBox="0 0 14 19" fill="none" xmlns="http://www.w3.org/2000/svg">
<path d="M8.73883 15.3815C5.85334 13.7861 6.08412 10.5353 7.57634 8.01335C9.23044 5.21762 11.5714 2.74044 13.5865 0.202758C13.8375 -0.113406 13.1914 0.102303 13.1416 0.112826C12.485 0.251776 11.7478 0.632272 11.1487 0.904432C10.3126 1.28445 9.48697 1.69556 8.68781 2.14876C8.24556 2.39964 7.62354 2.66223 7.30431 3.06425C5.21249 5.69903 2.74302 8.28096 1.09058 11.2257C-0.329635 13.7564 -0.558271 16.941 2.31054 18.5271C2.54299 18.6558 3.22032 18.3463 3.36289 18.2944C4.15203 18.0077 4.9283 17.6454 5.68168 17.2768C6.43864 16.9064 7.1944 16.5189 7.90868 16.0703C7.99165 16.0181 8.83301 15.4336 8.73931 15.3818L8.73883 15.3815Z" fill="#F9E696"/>
</svg>
