<svg width="17" height="16" viewBox="0 0 17 16" fill="none" xmlns="http://www.w3.org/2000/svg">
<path d="M0.492331 3.50333C2.52575 3.41891 4.75419 3.44522 6.36299 4.87657C7.76914 6.12735 7.92291 7.72037 7.3276 9.41934C6.81931 10.8698 5.76767 12.5817 6.67292 14.097C7.46111 15.4164 9.20914 15.7065 10.5929 15.9416C10.9577 16.0035 11.8968 15.5226 12.1638 15.4116C13.0101 15.0598 13.8448 14.6583 14.6564 14.2324C15.2734 13.9085 15.9715 13.5945 16.5053 13.1444C16.6371 13.0332 17.0636 12.7979 16.7084 12.7374C15.2293 12.486 13.3368 12.0235 12.8506 10.3779C12.3702 8.75257 13.5695 7.13348 13.9638 5.62202C14.4172 3.88503 13.7435 2.31306 12.256 1.31888C10.6146 0.221636 8.50249 0.22044 6.60783 0.299123C5.27463 0.354607 3.69802 1.40283 2.54435 2.00837C1.92734 2.33219 1.22927 2.6462 0.695463 3.09629C0.614403 3.16469 0.0937064 3.51984 0.492331 3.50333Z" fill="#F9E696"/>
</svg>
