<svg width="21" height="13" viewBox="0 0 21 13" fill="none" xmlns="http://www.w3.org/2000/svg">
<path d="M0.304897 4.74532C2.26512 7.40091 5.37091 7.56617 8.15389 6.24244C9.42963 5.6357 10.6892 4.88858 11.506 3.69854C12.0443 2.91435 12.7464 1.27063 11.7475 0.530438C10.9078 -0.0918456 9.30352 0.973837 8.57588 1.38447C7.44581 2.0223 6.5482 2.86484 6.01511 4.07019C4.66451 7.12421 6.38965 10.3643 9.22842 11.7701C12.7107 13.4946 16.5946 12.0743 19.7307 10.2703C19.9682 10.1338 20.3656 10.0101 20.0435 9.93525C19.724 9.86111 18.8262 10.4602 18.5589 10.614C13.8219 13.3387 5.77717 9.34214 8.03636 3.3202C8.26189 2.7192 8.60592 2.23108 8.98523 1.72526C9.11373 1.55355 9.51164 1.37801 9.13924 1.40503C9.43869 1.38327 9.669 1.60162 9.82612 1.81757C10.4784 2.71441 9.85901 4.0434 9.30995 4.79124C7.49253 7.26675 3.96739 5.75552 2.44775 3.69686C2.26346 3.44718 0.281294 4.71328 0.304897 4.74532Z" fill="#E8A13B"/>
</svg>
