<svg width="10" height="13" viewBox="0 0 10 13" fill="none" xmlns="http://www.w3.org/2000/svg">
<path d="M0.109516 8.3517C0.389889 10.1167 1.27343 13.4656 3.79726 12.8297C4.83125 12.569 5.51502 11.5244 6.12058 10.7275C7.00747 9.56064 7.89151 8.39164 8.77697 7.22384C9.0273 6.89381 9.11147 5.9556 9.17155 5.6093C9.32843 4.70386 9.43737 3.78167 9.51294 2.86618C9.5704 2.16999 9.67984 1.41044 9.58662 0.717131C9.56707 0.572202 9.58018 0.0269164 9.35273 0.327057C8.60007 1.31979 7.84741 2.31253 7.09498 3.30527C6.42838 4.18441 5.73508 5.41103 4.59046 5.69945C2.16343 6.31122 1.33972 3.23712 1.0634 1.4975C0.98782 1.02229 0.709598 1.93372 0.749651 1.82634C0.515293 2.45699 0.440666 3.28541 0.349354 3.93879C0.151949 5.35005 -0.116742 6.92634 0.109749 8.35218L0.109516 8.3517Z" fill="#E8A13B"/>
</svg>
