<svg width="42" height="28" viewBox="0 0 42 28" fill="none" xmlns="http://www.w3.org/2000/svg">
<path d="M1.76667 7.20468C0.272309 9.59911 0.479011 12.7342 2.19963 14.9698C4.35964 17.7763 8.12417 17.757 11.2095 16.7415C14.8238 15.552 18.59 13.5775 21.1982 10.7447C23.2686 8.49612 25.8978 4.33983 23.6267 1.40515C22.6279 0.11466 21.0878 -0.0343312 19.6178 0.397345C17.6103 0.986865 15.5104 2.05876 13.8539 3.3416C11.1634 5.42512 9.29596 8.72236 8.40907 11.9763C7.48069 15.3831 7.51073 19.4385 9.28165 22.5815C10.8609 25.3844 13.8146 26.8844 16.8717 27.4808C25.2195 29.1095 34.2796 25.3143 41.2508 21.0176C41.9286 20.5998 41.8373 20.4542 41.103 20.7136C40.0568 21.0834 39.0171 21.6141 38.0725 22.1964C33.4869 25.0228 27.2195 26.2824 21.886 25.5047C19.4597 25.151 17.0164 24.2752 15.2014 22.5695C13.205 20.6936 12.3348 17.9897 12.1431 15.3087C11.945 12.5336 12.5124 9.72897 13.6629 7.20468C14.2783 5.85441 15.0784 4.58473 16.0189 3.43845C16.4125 2.95871 16.8283 2.4914 17.2861 2.07168L17.6599 1.74834C18.4934 1.15404 18.0035 1.3621 16.1899 2.37254C16.6467 2.43376 17.092 2.25535 17.576 2.36058C20.9917 3.10316 20.3645 7.42399 19.144 9.68306C18.5633 10.7578 17.8356 11.7544 17.0103 12.6527C16.4881 13.2209 15.9231 13.7544 15.3147 14.2289C15.1225 14.3786 14.9253 14.5255 14.7253 14.6637C14.5606 14.7799 14.3918 14.8895 14.2189 14.9923C14.9559 14.6647 15.0255 14.6128 14.4275 14.8364C12.6766 15.1241 11.1327 15.4945 9.36653 14.9227C8.07004 14.503 6.98146 13.6449 6.22569 12.5132C4.81119 10.3948 4.58756 7.48904 5.95533 5.29742C6.1227 5.02908 4.45953 5.70637 4.33008 5.7652C3.66014 6.06965 2.1889 6.52907 1.76715 7.20492L1.76667 7.20468Z" fill="#E8A13B"/>
</svg>
