<svg width="27" height="21" viewBox="0 0 27 21" fill="none" xmlns="http://www.w3.org/2000/svg">
<path d="M26.9062 16.3249C22.6627 13.3505 18.1019 11.9801 12.9291 12.1751C8.67772 12.3353 4.23277 13.2895 1.45146 16.8068C0.91384 17.4865 0.213862 18.4175 0.933389 19.2108C1.56852 19.911 2.69573 20.2085 3.59168 20.3451C5.92382 20.7005 8.72207 20.5781 10.9736 19.8309C13.1327 19.1147 14.7703 17.4073 15.9328 15.5008C17.1103 13.5696 18.3968 11.0345 17.9646 8.70562C16.973 3.36168 9.53195 1.65315 5.23053 0.469086C4.32051 0.21845 3.22238 0.355724 2.29353 0.419339C1.90301 0.446125 1.19994 0.382993 0.874266 0.586036C0.841842 0.606125 0.362868 0.702983 0.641333 0.779752C4.28546 1.78301 8.44026 2.78891 11.2383 5.51146C12.2651 6.51066 13.0802 7.77483 13.2497 9.22435C13.4629 11.0448 12.6551 12.8641 11.8558 14.4499C11.0344 16.0795 9.96992 17.668 8.49749 18.7758C7.80371 19.2976 7.04698 19.4932 6.3172 19.9027C5.56358 20.3253 7.59223 19.7113 7.69618 19.9393C7.67186 19.8857 7.1619 19.8032 7.07845 19.7754C6.62547 19.6255 6.02277 19.3882 5.69805 19.0202C4.69386 17.8818 6.45382 16.2371 7.26585 15.4821C8.45934 14.3724 9.93487 13.5602 11.4776 13.0535C11.896 12.9162 12.3226 12.8028 12.7546 12.7177C12.8719 12.6947 13.1429 12.6948 13.2431 12.6333C12.8683 12.8631 11.9502 12.5953 13.044 12.7151C14.0723 12.8277 15.0827 13.074 16.0654 13.3933C18.2445 14.1015 20.2691 15.2025 22.1423 16.5155C22.678 16.891 23.9151 16.6839 24.534 16.6592C25.094 16.6368 25.6617 16.6095 26.2158 16.522C26.2904 16.5102 26.9284 16.3402 26.9067 16.3251L26.9062 16.3249Z" fill="#E8A13B"/>
</svg>
