<svg width="39" height="31" viewBox="0 0 39 31" fill="none" xmlns="http://www.w3.org/2000/svg">
<path d="M6.37686 1.67476C2.93371 5.17266 -1.95638 10.8005 1.41596 15.983C4.32458 20.453 10.9996 19.1248 15.1266 17.5428C17.3338 16.6964 19.9923 15.6223 21.6207 13.8318C23.0964 12.2089 23.3122 8.99987 20.6258 8.51486C18.6834 8.16426 16.2967 9.63818 14.9034 10.8648C13.0662 12.4825 11.197 15.2009 13.0807 17.5045C16.5368 21.7311 23.9037 18.85 26.8719 15.4937C26.9778 15.3741 26.3212 15.613 26.3205 15.6133C24.612 16.3035 23.0607 17.2242 22.5648 19.1243C22.2009 20.5179 22.421 22.0329 22.6356 23.4332C22.8177 24.623 23.0819 25.8207 23.6338 26.8986C26.1948 31.9019 32.5611 30.4696 36.8437 29.1885C37.3573 29.0349 37.8682 28.7831 38.3283 28.5097C38.4263 28.4516 39.0731 28.0453 38.6411 28.1747C34.8153 29.319 29.674 30.6138 26.6087 27.0939C25.3411 25.6384 24.9451 23.6774 24.699 21.816C24.5553 20.7283 24.4241 19.6021 24.6161 18.5113C24.715 17.9496 24.8886 17.4088 25.1863 16.9186C25.4038 16.5606 26.2697 15.9481 25.3294 16.3281L24.778 16.4477C23.3175 18.0991 21.4595 18.6706 19.2918 18.436C17.5536 18.2478 15.6313 17.4289 14.788 15.7943C13.8119 13.9023 14.9833 11.9446 16.3038 10.5776C17.1094 9.74365 17.6356 9.28423 18.8382 9.64512C19.689 9.90054 20.2977 10.5747 20.5128 11.4316C21.6965 16.1492 14.0437 17.7948 10.7739 17.9326C7.08303 18.088 3.31825 16.4938 2.63878 12.4975C1.82079 7.68643 5.37312 3.86854 8.47128 0.721011C8.56212 0.628697 7.73174 0.922148 7.65878 0.954912C7.24609 1.14074 6.70347 1.34353 6.37732 1.67476H6.37686Z" fill="#F9E696"/>
</svg>
