<svg width="35" height="10" viewBox="0 0 35 10" fill="none" xmlns="http://www.w3.org/2000/svg">
<path d="M0.513431 4.35528C1.99731 8.73829 7.97048 9.86615 11.9732 9.12453C14.6398 8.63043 17.3884 7.33923 19.5966 5.77922C21.2209 4.63175 22.3968 3.0416 22.8269 1.07598C23.251 -0.861906 22.88 -3.0631 21.394 -4.46718C19.4748 -6.2807 17.2225 -5.596 15.1131 -4.5638C13.0849 -3.57154 10.8514 -2.25762 11.6058 0.387924C12.2659 2.70295 14.919 3.58233 17.0842 3.4948C20.0987 3.37283 23.1876 2.10028 25.9029 0.870062C28.7793 -0.433099 31.5818 -1.97566 34.0313 -3.98576C34.7484 -4.57433 33.2581 -3.96137 33.1196 -3.90373C32.1669 -3.50745 31.0349 -3.0564 30.2253 -2.39227C27.5646 -0.20901 24.2376 1.41821 20.7119 1.36511C19.0254 1.33976 17.2275 0.670606 16.2927 -0.814792C15.9144 -1.41603 15.7251 -2.12369 15.7544 -2.83542C15.7713 -3.24868 15.8622 -3.64664 16.0345 -4.02235C16.1153 -4.19837 16.2429 -4.35095 16.3199 -4.52315C16.3893 -4.60255 16.4586 -4.68218 16.528 -4.76158C15.7139 -4.34521 14.8997 -3.92908 14.0855 -3.51271C14.4071 -3.36133 15.0294 -3.47899 15.412 -3.363C15.7293 -3.26686 16.0314 -3.12934 16.3175 -2.96194C16.9639 -2.58383 17.4898 -2.04669 17.8841 -1.41149C18.6137 -0.236274 18.8266 1.19651 18.6489 2.55635C18.4565 4.02764 17.8171 5.44751 16.7903 6.5218C16.6258 6.69375 15.8552 7.15891 15.8011 7.36434C15.8202 7.2914 17.6743 6.61985 17.043 6.73321C16.8709 6.76406 16.6947 6.84155 16.5242 6.88484C15.6542 7.1051 14.7388 7.18761 13.8428 7.19191C10.3744 7.2077 6.02766 5.88923 4.79864 2.25884C4.74858 2.11056 0.336541 3.8344 0.512966 4.35552L0.513431 4.35528Z" fill="#E8A13B"/>
</svg>
