<svg width="17" height="16" viewBox="0 0 17 16" fill="none" xmlns="http://www.w3.org/2000/svg">
<path d="M15.3479 0.45664C12.0197 1.7024 8.73795 3.26864 5.73825 5.18404C4.07557 6.2459 1.98374 7.56842 1.04463 9.364C-0.963746 13.2034 6.03937 15.3496 8.59538 15.7181C9.10057 15.7911 10.3115 15.1688 10.6898 15.0114C11.8166 14.5432 12.9357 14.0115 14.0133 13.439C14.8494 12.9949 15.7201 12.5589 16.4785 11.9883C16.6556 11.8551 17.2235 11.514 16.7495 11.4456C14.3225 11.0957 10.9607 9.93582 9.62484 7.68561C8.89172 6.4506 9.41122 5.27874 10.3339 4.32427C10.8143 3.8273 11.3481 3.38223 11.9052 2.97543C12.0402 2.87689 12.3358 2.74321 12.4307 2.61478C12.1632 2.76354 11.8957 2.9123 11.6285 3.06105C10.9559 3.40472 10.274 3.72757 9.58287 4.02986C11.6754 3.24663 13.7496 2.25413 15.6438 1.06457C15.8119 0.959105 16.8652 0.380589 16.7512 0.146455C16.6346 -0.0931789 15.3489 0.456162 15.3479 0.45664Z" fill="#F9E696"/>
</svg>
