<svg width="21" height="13" viewBox="0 0 21 13" fill="none" xmlns="http://www.w3.org/2000/svg">
<path d="M1.41165 5.51557C3.91617 4.57712 6.74183 3.99861 8.94523 5.94414C9.86049 6.75225 10.5161 7.81099 11.0452 8.90202C11.5012 9.84238 12.3288 11.4079 11.4471 12.3176C11.033 12.7448 12.0925 12.4234 12.0403 12.4375C12.9386 12.1954 13.8591 11.7678 14.6976 11.3818C16.3396 10.6263 18.5294 9.83736 19.8235 8.50239C20.8925 7.39941 20.1894 5.88913 19.6165 4.70842C18.99 3.41745 18.1787 2.1583 16.9823 1.33058C14.0482 -0.699136 10.1528 0.8274 7.17693 1.94235C5.08439 2.7263 3.01044 3.71784 1.11602 4.90764C0.947943 5.0131 -0.105361 5.59163 0.00860015 5.82576C0.125184 6.0654 1.4107 5.51605 1.41165 5.51557Z" fill="#E8A13B"/>
</svg>
